<?xml version="1.0" encoding="utf-8"?>
<!-- Generator: Adobe Illustrator 22.1.0, SVG Export Plug-In . SVG Version: 6.00 Build 0)  -->
<svg version="1.1" id="レイヤー_1" xmlns="http://www.w3.org/2000/svg" xmlns:xlink="http://www.w3.org/1999/xlink" x="0px"
	 y="0px" viewBox="0 0 163.4 130.4" style="enable-background:new 0 0 163.4 130.4;" xml:space="preserve">
<style type="text/css">
	.st0{fill:#FFFFFF;stroke:#000000;stroke-miterlimit:10;}
</style>
<path class="st0" d="M81.7,23.6c-44.8,0-81.2,18.2-81.2,40.7c0,18.2,23.9,33.5,56.9,38.7v26.2l32.5-32.5L57.4,64.3v22.2
	C31.8,81.9,16.7,71,16.7,64.3c0-8.6,24.7-24.4,65-24.4s65,15.8,65,24.4c0,5.9-11.9,15.4-32.5,20.6v16.7
	c28.7-6.3,48.7-20.6,48.7-37.2C163,41.8,126.6,23.6,81.7,23.6z"/>
<path class="st0" d="M27.4,44.6l9.6-1.2c0.3,2.4,1.1,4.3,2.5,5.6s3,1.9,4.9,1.9c2,0,3.8-0.8,5.2-2.3s1.9-3.6,1.9-6.2
	c0-2.5-0.7-4.5-2-5.9s-3-2.2-4.9-2.2c-1.3,0-2.8,0.2-4.5,0.7l1.1-8.1c2.7,0.1,4.7-0.5,6.1-1.7s2.1-2.9,2.1-4.9
	c0-1.7-0.5-3.1-1.5-4.1s-2.4-1.5-4.1-1.5c-1.7,0-3.1,0.6-4.3,1.8c-1.2,1.2-1.9,2.9-2.2,5.1L28.1,20c0.6-3.1,1.6-5.6,2.9-7.5
	s3.1-3.3,5.3-4.4C38.6,7,41.1,6.5,44,6.5c4.9,0,8.7,1.5,11.7,4.6c2.4,2.5,3.6,5.4,3.6,8.6c0,4.5-2.5,8.1-7.4,10.8
	c3,0.6,5.3,2.1,7.1,4.3s2.7,4.9,2.7,8c0,4.5-1.7,8.4-5,11.6s-7.4,4.8-12.3,4.8c-4.7,0-8.5-1.3-11.6-4S27.9,48.9,27.4,44.6z"/>
<path class="st0" d="M101.2,19.3l-9.6,1.1c-0.2-2-0.8-3.4-1.8-4.4c-1-0.9-2.3-1.4-3.8-1.4c-2.1,0-3.8,0.9-5.3,2.8
	c-1.4,1.9-2.3,5.8-2.7,11.7c2.5-2.9,5.5-4.4,9.2-4.4c4.1,0,7.7,1.6,10.6,4.7s4.4,7.2,4.4,12.2c0,5.3-1.5,9.5-4.6,12.7
	s-7.1,4.8-11.9,4.8c-5.2,0-9.5-2-12.8-6.1s-5-10.7-5-19.9c0-9.4,1.7-16.3,5.2-20.4c3.5-4.2,8-6.3,13.6-6.3c3.9,0,7.2,1.1,9.7,3.3
	C98.9,12,100.5,15.2,101.2,19.3z M78.8,40.9c0,3.2,0.7,5.7,2.2,7.4s3.2,2.6,5.1,2.6c1.8,0,3.4-0.7,4.6-2.1s1.8-3.8,1.8-7
	c0-3.4-0.7-5.8-2-7.4s-3-2.3-4.9-2.3s-3.5,0.7-4.8,2.2S78.8,38,78.8,40.9z"/>
<path class="st0" d="M124.5,6.5c5,0,8.9,1.8,11.7,5.3c3.4,4.2,5,11.2,5,21s-1.7,16.8-5.1,21c-2.8,3.5-6.7,5.3-11.7,5.3
	s-9.1-1.9-12.1-5.8s-4.6-10.7-4.6-20.6c0-9.7,1.7-16.7,5.1-21C115.6,8.3,119.5,6.5,124.5,6.5z M124.5,14.7c-1.2,0-2.3,0.4-3.2,1.1
	c-0.9,0.8-1.7,2.1-2.2,4.1c-0.7,2.6-1,6.9-1,12.9s0.3,10.2,0.9,12.5s1.4,3.8,2.3,4.5s2,1.1,3.2,1.1s2.3-0.4,3.2-1.1
	c0.9-0.8,1.7-2.1,2.2-4.1c0.7-2.5,1-6.8,1-12.9s-0.3-10.2-0.9-12.5c-0.6-2.3-1.4-3.8-2.3-4.5C126.8,15.1,125.7,14.7,124.5,14.7z"/>
<path class="st0" d="M162.8,9.9c0,5.2-4.2,9.4-9.4,9.4s-9.4-4.2-9.4-9.4c0-5.1,4.2-9.4,9.4-9.4C158.7,0.5,162.8,4.9,162.8,9.9z
	 M147.1,9.9c0,3.5,2.8,6.3,6.3,6.3s6.3-2.8,6.3-6.3s-2.8-6.3-6.3-6.3C149.8,3.6,147.1,6.5,147.1,9.9z"/>
</svg>
